<svg xmlns="http://www.w3.org/2000/svg" width="24" height="24" viewBox="0 0 24 24" fill="none" stroke="#3366FF" stroke-width="2" stroke-linecap="round" stroke-linejoin="round">
  <path d="M6.5 6.5h11"></path>
  <path d="M6.5 17.5h11"></path>
  <path d="M6 17V7c0-.3 0-.5.2-.7l.6-.6c.2-.2.4-.2.7-.2 .3 0 .5 0 .7.2l.6.6c.2.2.2.4.2.7 0 .3 0 .5-.2.7l-.6.6c-.2.2-.4.2-.7.2"></path>
  <path d="M17 7v10c0 .3 0 .5-.2.7l-.6.6c-.2.2-.4.2-.7.2-.3 0-.5 0-.7-.2l-.6-.6c-.2-.2-.2-.4-.2-.7 0-.3 0-.5.2-.7l.6-.6c.2-.2.4-.2.7-.2"></path>
</svg>